{"title":"Chicago Fire S01 COMPLETE BluRay x264 AAC 2.0-LeRalouf","uid":14653371,"size":7864644240,"categoryP":"video","categoryS":"tv_shows","magnet":"?xt=urn:btih:720c785fc03381ee5fa240d7d3ca3806b41249a5&amp;dn=Chicago+Fire+S01+COMPLETE+BluRay+x264+AAC+2.0-LeRalouf&amp;tr=udp%3A%2F%2Ftracker.leechers-paradise.org%3A6969&amp;tr=udp%3A%2F%2Fzer0day.ch%3A1337&amp;tr=udp%3A%2F%2Fopen.demonii.com%3A1337&amp;tr=udp%3A%2F%2Ftracker.coppersurfer.tk%3A6969&amp;tr=udp%3A%2F%2Fexodus.desync.com%3A6969","seeders":1,"leechers":0,"uploader":"LeRalouf","files":72,"time":1463672946,"description":"Chicago Fire season 1 BluRay x264-LeRalouf, COMPLETE\r\n\r\n\r\nGeneral\r\nFormat : MPEG-4\r\nFormat profile : Base Media\r\nCodec ID : isom\r\nFile size : 346 MiB\r\nDuration : 42mn 35s\r\nOverall bit rate mode : Variable\r\nOverall bit rate : 1 136 Kbps\r\nEncoded date : UTC 2016-04-07 17:22:49\r\nTagged date : UTC 2016-04-07 17:22:49\r\n\r\nVideo\r\nID : 1\r\nFormat : AVC\r\nFormat/Info : Advanced Video Codec\r\nFormat profile :   \r\nFormat settings, CABAC : Yes\r\nFormat settings, ReFrames : 15 frames\r\nCodec ID : avc1\r\nCodec ID/Info : Advanced Video Coding\r\nDuration : 42mn 35s\r\nBit rate : 972 Kbps\r\nMaximum bit rate : 3 952 Kbps\r\nWidth : 720 pixels\r\nHeight : 406 pixels\r\nDisplay aspect ratio : 16:9\r\nFrame rate mode : Constant\r\nFrame rate : 23.976 fps\r\nColor space : YUV\r\nChroma subsampling : 4:2:0\r\nBit depth : 8 bits\r\nScan type : Progressive\r\nBits/(Pixel*Frame) : 0.139\r\nStream size : 296 MiB (86%)\r\nWriting library : x264 core 142 r2389 956c8d8\r\nEncoding settings : cabac=1 / ref=15 / deblock=1:0:0 / analyse=0x3:0x133 / me=umh / subme=11 / psy=1 / psy_rd=1,00:0,00 / mixed_ref=1 / me_range=16 / chroma_me=1 / trellis=2 / 8x8dct=1 / cqm=0 / deadzone=21,11 / fast_pskip=1 / chroma_qp_offset=-2 / threads=12 / lookahead_threads=1 / sliced_threads=0 / nr=0 / decimate=1 / interlaced=0 / bluray_compat=0 / constrained_intra=0 / bframes=5 / b_pyramid=2 / b_adapt=2 / b_bias=0 / direct=3 / weightb=1 / open_gop=0 / weightp=2 / keyint=250 / keyint_min=23 / scenecut=40 / intra_refresh=0 / rc_lookahead=60 / rc=crf / mbtree=1 / crf=19,0 / qcomp=0,60 / qpmin=0 / qpmax=69 / qpstep=4 / ip_ratio=1,40 / aq=1:1,00\r\nEncoded date : UTC 2016-04-07 17:22:49\r\nTagged date : UTC 2016-04-07 17:23:01\r\nColor primaries : BT.709\r\nTransfer characteristics : BT.709\r\nMatrix coefficients : BT.709\r\n\r\nAudio\r\nID : 2\r\nFormat : AAC\r\nFormat/Info : Advanced Audio Codec\r\nFormat profile : LC\r\nCodec ID : 40\r\nDuration : 42mn 35s\r\nBit rate mode : Variable\r\nBit rate : 160 Kbps\r\nMaximum bit rate : 200 Kbps\r\nChannel(s) : 2 channels\r\nChannel positions : Front: L R\r\nSampling rate : 48.0 KHz\r\nCompression mode : Lossy\r\nStream size : 48.8 MiB (14%)\r\nLanguage : English\r\nEncoded date : UTC 2016-04-07 17:22:57\r\nTagged date : UTC 2016-04-07 17:23:01\r\n\r\nText #1\r\nID : 3\r\nFormat : Timed Text\r\nCodec ID : tx3g\r\nDuration : 40mn 40s\r\nBit rate mode : Variable\r\nBit rate : 62 bps\r\nStream size : 18.6 KiB (0%)\r\nLanguage : English\r\nEncoded date : UTC 2016-04-07 17:23:01\r\nTagged date : UTC 2016-04-07 17:23:01\r\n\r\nText #2\r\nID : 4\r\nFormat : Timed Text\r\nCodec ID : tx3g\r\nDuration : 42mn 1s\r\nBit rate mode : Variable\r\nBit rate : 65 bps\r\nStream size : 19.9 KiB (0%)\r\nTitle : SDH\r\nLanguage : English\r\nEncoded date : UTC 2016-04-07 17:23:01\r\nTagged date : UTC 2016-04-07 17:23:01\r\n\r\n\r\n\r\n\r\nThe 1st season, complete, with both english and english SDH subtitles, .srt and muxed.\r\n\r\n\r\nSources : Chicago.Fire.S01.1080p.BluRay.x264-shortbrehd","torrent":{"xt":"urn:btih:720c785fc03381ee5fa240d7d3ca3806b41249a5","amp;dn":"Chicago+Fire+S01+COMPLETE+BluRay+x264+AAC+2.0-LeRalouf","amp;tr":["udp%3A%2F%2Ftracker.leechers-paradise.org%3A6969","udp%3A%2F%2Fzer0day.ch%3A1337","udp%3A%2F%2Fopen.demonii.com%3A1337","udp%3A%2F%2Ftracker.coppersurfer.tk%3A6969","udp%3A%2F%2Fexodus.desync.com%3A6969"],"infoHash":"720c785fc03381ee5fa240d7d3ca3806b41249a5","infoHashBuffer":{"type":"Buffer","data":[114,12,120,95,192,51,129,238,95,162,64,215,211,202,56,6,180,18,73,165]},"announce":[],"urlList":[]}}